<?xml version="1.0" standalone="no"?>
<!DOCTYPE svg PUBLIC "-//W3C//DTD SVG 20010904//EN"
 "http://www.w3.org/TR/2001/REC-SVG-20010904/DTD/svg10.dtd">
<svg version="1.0" xmlns="http://www.w3.org/2000/svg"
 width="421.000000pt" height="421.000000pt" viewBox="0 0 421.000000 421.000000"
 preserveAspectRatio="xMidYMid meet">
<metadata>
Created by potrace 1.11, written by Peter Selinger 2001-2013
</metadata>
<g transform="translate(0.000000,421.000000) scale(0.100000,-0.100000)"
fill="#000000" stroke="none">
<path d="M1214 3750 c-17 -18 -44 -33 -75 -40 -27 -7 -55 -20 -62 -30 -7 -10
-33 -27 -59 -39 -31 -15 -50 -32 -58 -52 -7 -16 -16 -29 -21 -29 -4 0 -11 -17
-14 -37 -8 -49 -25 -93 -35 -93 -13 0 -32 -67 -28 -99 2 -20 -5 -37 -19 -53
-33 -35 -41 -66 -27 -107 6 -19 10 -45 8 -56 -14 -63 -14 -106 1 -141 10 -24
14 -53 11 -74 -15 -98 -19 -144 -18 -240 1 -197 1 -225 -2 -265 -1 -22 0 -42
4 -45 4 -3 11 -16 15 -29 7 -22 5 -24 -23 -18 -17 3 -36 1 -45 -6 -19 -15 -34
-70 -31 -117 2 -47 31 -212 43 -241 5 -13 10 -28 11 -34 5 -25 24 -48 53 -65
18 -11 29 -20 25 -20 -21 0 86 -249 124 -289 10 -11 18 -24 18 -28 0 -21 142
-155 255 -241 32 -24 113 -72 122 -72 6 0 16 -7 23 -15 7 -8 16 -12 21 -9 5 3
9 0 9 -7 0 -7 3 -9 7 -6 3 4 11 3 17 -2 6 -4 43 -19 81 -32 132 -44 332 -29
466 34 54 26 62 25 49 -7 -8 -23 -6 -168 4 -225 16 -98 60 -183 123 -242 47
-44 130 -99 155 -103 7 -1 18 -4 23 -7 8 -5 36 -14 80 -25 182 -45 330 -16
430 84 50 51 65 69 65 81 0 5 3 11 8 13 9 4 73 126 77 149 2 9 12 36 23 60 29
67 35 83 34 91 -1 4 13 22 31 40 43 44 58 80 73 181 8 49 0 77 -28 109 -32 35
-60 48 -107 48 -36 0 -40 3 -51 34 -13 40 -43 70 -90 89 -35 15 -49 15 -89 2
-27 -8 -27 -1 4 39 14 18 25 36 25 40 0 4 6 14 13 21 25 29 37 44 37 49 0 3
12 22 26 43 14 21 30 47 35 58 11 24 32 58 40 65 14 12 39 75 39 99 0 58 -63
112 -123 105 -23 -2 -77 -43 -77 -59 0 -3 -11 -18 -25 -33 -14 -15 -25 -32
-25 -39 0 -7 -4 -13 -9 -13 -5 0 -13 -10 -16 -21 -8 -23 -58 -100 -87 -133
-10 -11 -18 -24 -18 -28 0 -5 -5 -14 -10 -21 -47 -55 -61 -74 -66 -89 -3 -10
-9 -18 -14 -18 -5 0 -12 -9 -15 -20 -3 -11 -14 -20 -23 -20 -10 0 -13 3 -6 8
23 16 113 184 122 230 6 28 14 37 35 43 57 15 75 48 112 194 28 109 29 218 2
259 -16 24 -22 26 -54 20 l-36 -7 8 49 c14 94 21 476 10 568 -10 77 -41 148
-89 200 -41 43 -45 52 -44 97 0 82 -46 156 -135 217 -38 27 -109 62 -123 61
-3 0 -16 6 -29 15 -70 46 -217 121 -275 141 -3 1 -12 4 -20 7 -39 15 -58 20
-100 25 -25 3 -54 12 -65 19 -11 7 -24 14 -30 15 -5 1 -14 3 -20 5 -38 13
-101 21 -140 18 -28 -3 -70 3 -109 15 -51 16 -72 18 -100 10 -19 -5 -38 -14
-41 -18 -5 -9 -33 -6 -65 7 -8 3 -17 6 -20 6 -3 1 -10 4 -16 8 -32 21 -65 16
-90 -12z"/>
</g>
</svg>
